<svg version="1.1" xmlns="http://www.w3.org/2000/svg" viewBox="0 0 315 276" width="315" height="276">
  <!-- svg-source:excalidraw -->
  
  <defs>
    <style class="style-fonts">
      @font-face {
        font-family: "Virgil";
        src: url("https://file%2B.vscode-resource.vscode-cdn.net/c%3A/Users/jacop/.vscode/extensions/pomdtr.excalidraw-editor-3.7.4/public//dist/excalidraw-assets/Virgil.woff2");
      }
      @font-face {
        font-family: "Cascadia";
        src: url("https://file%2B.vscode-resource.vscode-cdn.net/c%3A/Users/jacop/.vscode/extensions/pomdtr.excalidraw-editor-3.7.4/public//dist/excalidraw-assets/Cascadia.woff2");
      }
      @font-face {
        font-family: "Assistant";
        src: url("https://file%2B.vscode-resource.vscode-cdn.net/c%3A/Users/jacop/.vscode/extensions/pomdtr.excalidraw-editor-3.7.4/public//dist/excalidraw-assets/Assistant-Regular.woff2");
      }
    </style>
    
  </defs>
  <g stroke-linecap="round" transform="translate(10 10) rotate(0 147.5 128)"><path d="M32 0 C120.36 0.64, 208.27 1.53, 263 0 M32 0 C99.15 0, 164.81 -1.61, 263 0 M263 0 C284.22 0.99, 296.11 11.36, 295 32 M263 0 C284.78 -2.06, 296.91 10.08, 295 32 M295 32 C296.04 101.29, 293.19 166.53, 295 224 M295 32 C296.08 80.32, 294.67 126.92, 295 224 M295 224 C294.67 243.5, 282.82 254.76, 263 256 M295 224 C294.49 246.17, 285.8 257.54, 263 256 M263 256 C203.68 256.03, 144 254.75, 32 256 M263 256 C202 254.69, 140.86 254.28, 32 256 M32 256 C11.25 256.05, 1.68 244.48, 0 224 M32 256 C12.92 254.87, -1.6 246.44, 0 224 M0 224 C-2.63 156.31, -0.84 91.48, 0 32 M0 224 C-1.07 180.22, -0.16 137.36, 0 32 M0 32 C-1.51 12.33, 12.56 -0.95, 32 0 M0 32 C-0.47 8.43, 12.81 -1.55, 32 0" stroke="#1e1e1e" stroke-width="2" fill="none"></path></g><g transform="translate(128.203125 15) rotate(0 29.296875 12)"><text x="29.296875" y="0" font-family="Cascadia, Segoe UI Emoji" font-size="20px" fill="#1e1e1e" text-anchor="middle" style="white-space: pre;" direction="ltr" dominant-baseline="text-before-edge">Model</text></g><g stroke-linecap="round" transform="translate(68 110) rotate(0 90 67.5)"><path d="M32 0 C74.37 -0.34, 112.65 -1.32, 148 0 M32 0 C57.94 0.3, 84.8 1.78, 148 0 M148 0 C168.64 -1.35, 180.92 12.01, 180 32 M148 0 C171.24 -1.82, 177.86 8.85, 180 32 M180 32 C178.94 50.09, 177.62 71.76, 180 103 M180 32 C179.59 48.3, 180.07 65.51, 180 103 M180 103 C179.88 122.36, 170.35 136.9, 148 135 M180 103 C177.87 122.67, 171.21 135.57, 148 135 M148 135 C121.69 135.13, 99.22 135.57, 32 135 M148 135 C123.68 135.25, 96.65 136.22, 32 135 M32 135 C10.44 133.66, 0.39 123.47, 0 103 M32 135 C8.98 135.03, 1.13 122.18, 0 103 M0 103 C-0.95 78.17, -1.04 51.6, 0 32 M0 103 C-0.31 87, -1.01 71.87, 0 32 M0 32 C-1.47 8.67, 10.39 -0.66, 32 0 M0 32 C0.22 9.99, 10.49 1.83, 32 0" stroke="#e03131" stroke-width="2" fill="none"></path></g><g transform="translate(99.40625 165.5) rotate(0 58.59375 12)"><text x="58.59375" y="0" font-family="Cascadia, Segoe UI Emoji" font-size="20px" fill="#e03131" text-anchor="middle" style="white-space: pre;" direction="ltr" dominant-baseline="text-before-edge">Device API</text></g></svg>
